<?xml version="1.0" encoding="utf-8"?>
<!-- Generator: Adobe Illustrator 18.1.0, SVG Export Plug-In . SVG Version: 6.00 Build 0)  -->
<!DOCTYPE svg PUBLIC "-//W3C//DTD SVG 1.1//EN" "http://www.w3.org/Graphics/SVG/1.1/DTD/svg11.dtd">
<svg version="1.1" id="Слой_1" xmlns="http://www.w3.org/2000/svg" xmlns:xlink="http://www.w3.org/1999/xlink" x="0px" y="0px"
	 viewBox="0 0 34.7 44.2" enable-background="new 0 0 34.7 44.2" xml:space="preserve">
<g>
	<path fill="#FFFFFF" d="M34.6,9.1C34.6,9.1,34.6,9.1,34.6,9.1c0-0.1-0.1-0.3-0.1-0.4c0,0,0-0.1,0-0.1c-0.1-0.1-0.1-0.2-0.2-0.3
		l-7.9-7.9c-0.1-0.1-0.2-0.2-0.3-0.2c0,0-0.1,0-0.1,0c-0.1-0.1-0.2-0.1-0.4-0.1c0,0,0,0,0,0c-0.1,0-0.2,0-0.3,0H1.5
		C0.7,0,0,0.7,0,1.5v41.2c0,0.8,0.7,1.5,1.5,1.5h31.7c0.8,0,1.5-0.7,1.5-1.5V9.4C34.7,9.3,34.6,9.2,34.6,9.1z M29.5,7.9h-2.7V5.1
		L29.5,7.9z M3,41.2V3h20.8v6.4c0,0.8,0.7,1.5,1.5,1.5h6.4v30.4H3z"/>
	<path fill="#FFFFFF" d="M25.6,25.7c-0.9,0-1.8,0.1-2.9,0.2c-2.2-2.1-4.6-4.8-5.3-5.7c0.9-3.8,0.8-6.3-0.2-7.5
		c-0.5-0.6-1.1-0.9-1.9-0.9c0,0-0.1,0-0.1,0c-0.9,0-1.5,0.4-1.9,1.1c-1,1.8,0.7,5.5,1.9,7.7c-0.4,1.7-0.9,3.2-1.3,4
		c-0.4,1.1-1.1,2.4-1.8,3.8c-2.6,1-4.4,2.2-5.6,3.7c-1.3,1.5-1.2,2.6-0.9,3.2c0.3,0.7,1.1,1.1,2,1.1c0.7,0,1.4-0.2,1.9-0.6
		c1.3-0.8,3-3.9,4.1-5.8c1.1-0.4,2.3-0.8,3.4-1.1c1.4-0.4,3.3-0.8,5.1-1c1.3,1.2,2.3,1.9,3.2,2.2c0.7,0.3,1.4,0.4,2,0.4c0,0,0,0,0,0
		c1.3,0,2.3-0.6,2.8-1.5c0.4-0.7,0.3-1.6-0.3-2.3C29.1,26.1,27.8,25.7,25.6,25.7z M8.4,34.2c-0.3,0.2-0.8,0.3-1,0.3
		c0-0.1,0.2-0.5,0.6-1c0.6-0.7,1.4-1.4,2.4-1.9C9.5,33.1,8.8,34,8.4,34.2z M15.1,13.9c0-0.1,0.2-0.1,0.3-0.1c0.2,0,0.2,0,0.3,0.1
		c0.3,0.4,0.5,1.5,0.2,3.5C15.2,15.8,14.8,14.4,15.1,13.9z M16.4,27.1c-0.5,0.1-1,0.3-1.5,0.5c0.4-0.8,0.7-1.5,0.9-2.1
		c0.3-0.8,0.7-1.8,1-2.9c0.9,1,2.1,2.3,3.4,3.7C18.8,26.5,17.5,26.8,16.4,27.1z M28.2,28.3c-0.1,0.1-0.4,0.4-1,0.4
		c-0.4,0-0.8-0.1-1.2-0.3c-0.2-0.1-0.6-0.3-1.1-0.6c0.2,0,0.5,0,0.7,0c2.1,0,2.5,0.4,2.5,0.4c0,0,0,0,0,0
		C28.2,28.2,28.2,28.3,28.2,28.3z"/>
</g>
</svg>
